[img]http://img405.imageshack.us/img405/6884/cowe.jpg[/img]
[code]
General
Complete name                    : Cowboys And Aliens 2011 TS XViD - noaudio.avi
Format                           : AVI
Format/Info                      : Audio Video Interleave
File size                        : 1.01 GiB
Duration                         : 1h 53mn
Overall bit rate                 : 1 269 Kbps

Video
ID                               : 0
Format                           : MPEG-4 Visual
Format profile                   : Advanced Simple@L5
Format settings, BVOP            : Yes
Format settings, QPel            : No
Format settings, GMC             : No warppoints
Format settings, Matrix          : Default (H.263)
Muxing mode                      : Packed bitstream
Codec ID                         : XVID
Codec ID/Hint                    : XviD
Duration                         : 1h 53mn
Bit rate                         : 1 263 Kbps
Width                            : 720 pixels
Height                           : 304 pixels
Display aspect ratio             : 2.35:1
Frame rate                       : 29.970 fps
Color space                      : YUV
Chroma subsampling               : 4:2:0
Bit depth                        : 8 bits
Scan type                        : Progressive
Bits/(Pixel*Frame)               : 0.193
Stream size                      : 1.00 GiB (100%)


Audio
ID                               : 1
Format                           : AC-3
Format/Info                      : Audio Coding 3
Mode extension                   : CM (complete main)
Codec ID                         : 2000
Duration                         : 1h 53mn
Bit rate mode                    : Constant
Bit rate                         : 320 Kbps
Channel(s)                       : 2 channels
Channel positions                : Front: L R
Sampling rate                    : 44.1 KHz
Bit depth                        : 16 bits
Compression mode                 : Lossy
Stream size                      : 261 MiB (20%)
Alignment                        : Split accross interleaves
Interleave, duration             : 70 ms (2.09 video frames)
Interleave, preload duration     : 208 ms

source and audio : imagine  thnx guys 
[/code]
Screens:
[img]http://img585.imageshack.us/img585/1373/68849633.jpg[/img]
[img]http://img38.imageshack.us/img38/1825/17045003.jpg[/img]
[img]http://img851.imageshack.us/img851/2310/75986770.jpg[/img]
[img]http://img192.imageshack.us/img192/3043/26640298.jpg[/img]
[img]http://img845.imageshack.us/img845/9496/65784951.jpg[/img]